<svg xmlns="http://www.w3.org/2000/svg" width="244.564" height="57.712" viewBox="0 0 244.564 57.712">
  <defs>
    <style>
      .cls-1 {
        fill: #034a91;
      }

      .cls-2 {
        fill: #56cccc;
      }
    </style>
  </defs>
  <g id="Group_394" data-name="Group 394" transform="translate(-587.735 -316.648)">
    <g id="Group_381" data-name="Group 381" transform="translate(669.764 350.757)">
      <g id="Group_364" data-name="Group 364" transform="translate(0 0.596)">
        <path id="Path_123" data-name="Path 123" class="cls-1" d="M666.241,344.423l-2.377,10.846H661.5l-1.683-7.047-1.677,7.047h-2.369l-2.383-10.846h2.324l1.408,7.538,1.706-7.538H660.8l1.713,7.538,1.4-7.538Z" transform="translate(-653.384 -344.423)"/>
      </g>
      <g id="Group_365" data-name="Group 365" transform="translate(14.221 3.232)">
        <path id="Path_124" data-name="Path 124" class="cls-1" d="M672.14,351.442h-5.1a1.972,1.972,0,0,0,.626,1.2,1.859,1.859,0,0,0,1.281.442,2.625,2.625,0,0,0,1.076-.219,2.21,2.21,0,0,0,.846-.658l1.081,1.243a3.308,3.308,0,0,1-1.241,1.028,4.152,4.152,0,0,1-1.911.417,4.261,4.261,0,0,1-2.149-.522,3.58,3.58,0,0,1-1.4-1.416,4.053,4.053,0,0,1-.487-1.973V350.7a4.9,4.9,0,0,1,.454-2.153,3.458,3.458,0,0,1,1.311-1.478,3.752,3.752,0,0,1,2.027-.534,3.707,3.707,0,0,1,1.944.485,3.1,3.1,0,0,1,1.222,1.374,4.889,4.889,0,0,1,.417,2.1Zm-2.205-1.683a1.533,1.533,0,0,0-.361-1.036,1.326,1.326,0,0,0-1.032-.38,1.244,1.244,0,0,0-1,.425,2.3,2.3,0,0,0-.474,1.17h2.869Z" transform="translate(-664.765 -346.533)"/>
      </g>
      <g id="Group_366" data-name="Group 366" transform="translate(27.792 3.232)">
        <path id="Path_125" data-name="Path 125" class="cls-1" d="M681.5,347.04a3.069,3.069,0,0,1,1.068,1.427,5.871,5.871,0,0,1,.362,2.157v.156a5.81,5.81,0,0,1-.365,2.119,3.257,3.257,0,0,1-1.07,1.463,2.732,2.732,0,0,1-1.694.53,2.461,2.461,0,0,1-1.929-.85v3.8h-2.25V346.682h2.085l.083.776a2.461,2.461,0,0,1,2-.925A2.857,2.857,0,0,1,681.5,347.04Zm-.812,3.584a3.288,3.288,0,0,0-.357-1.658,1.208,1.208,0,0,0-1.125-.615,1.34,1.34,0,0,0-1.333.745v3.21a1.36,1.36,0,0,0,1.348.775,1.183,1.183,0,0,0,1.117-.632,3.439,3.439,0,0,0,.35-1.668Z" transform="translate(-675.626 -346.533)"/>
      </g>
      <g id="Group_367" data-name="Group 367" transform="translate(36.992 3.232)">
        <path id="Path_126" data-name="Path 126" class="cls-1" d="M687.325,346.559a1.953,1.953,0,0,1,.312.064l-.03,2.175a5.814,5.814,0,0,0-.8-.06,1.546,1.546,0,0,0-1.572.8v5.207h-2.249v-8.061H685.1l.066.976a2.246,2.246,0,0,1,.757-.835,1.891,1.891,0,0,1,1.031-.29A2.747,2.747,0,0,1,687.325,346.559Z" transform="translate(-682.989 -346.533)"/>
      </g>
      <g id="Group_368" data-name="Group 368" transform="translate(42.891 3.232)">
        <path id="Path_127" data-name="Path 127" class="cls-1" d="M688.161,348.522a3.43,3.43,0,0,1,1.314-1.461,3.887,3.887,0,0,1,2.063-.529,3.926,3.926,0,0,1,2.075.529,3.43,3.43,0,0,1,1.318,1.461,4.808,4.808,0,0,1,.451,2.115v.156a4.785,4.785,0,0,1-.451,2.113,3.433,3.433,0,0,1-1.315,1.456,4.306,4.306,0,0,1-4.138,0,3.417,3.417,0,0,1-1.318-1.456,4.768,4.768,0,0,1-.451-2.113v-.156A4.791,4.791,0,0,1,688.161,348.522Zm2.179,3.937a1.314,1.314,0,0,0,1.213.621,1.3,1.3,0,0,0,1.2-.625,3.174,3.174,0,0,0,.38-1.662v-.156a3.194,3.194,0,0,0-.38-1.661,1.308,1.308,0,0,0-1.214-.634,1.293,1.293,0,0,0-1.2.637,3.2,3.2,0,0,0-.381,1.657v.156A3.17,3.17,0,0,0,690.34,352.459Z" transform="translate(-687.71 -346.533)"/>
      </g>
      <g id="Group_369" data-name="Group 369" transform="translate(51.725 1.386)">
        <path id="Path_128" data-name="Path 128" class="cls-1" d="M699.616,353.36v1.692a3.921,3.921,0,0,1-1.326.209,2.114,2.114,0,0,1-2.369-2.414V348.69H694.78V347.05h1.141v-2h2.249v2h1.356v1.639H698.17v3.9a.886.886,0,0,0,.186.652.919.919,0,0,0,.633.175A3.218,3.218,0,0,0,699.616,353.36Z" transform="translate(-694.78 -345.055)"/>
      </g>
      <g id="Group_370" data-name="Group 370" transform="translate(57.952 3.232)">
        <path id="Path_129" data-name="Path 129" class="cls-1" d="M707.139,351.442h-5.1a1.985,1.985,0,0,0,.626,1.2,1.859,1.859,0,0,0,1.281.442,2.631,2.631,0,0,0,1.077-.219,2.229,2.229,0,0,0,.846-.658l1.08,1.243a3.288,3.288,0,0,1-1.241,1.028,4.152,4.152,0,0,1-1.911.417,4.261,4.261,0,0,1-2.149-.522,3.589,3.589,0,0,1-1.4-1.416,4.053,4.053,0,0,1-.487-1.973V350.7a4.9,4.9,0,0,1,.455-2.153,3.458,3.458,0,0,1,1.311-1.478,3.752,3.752,0,0,1,2.027-.534,3.7,3.7,0,0,1,1.943.485,3.081,3.081,0,0,1,1.222,1.374,4.889,4.889,0,0,1,.417,2.1Zm-2.205-1.683a1.533,1.533,0,0,0-.361-1.036,1.325,1.325,0,0,0-1.031-.38,1.248,1.248,0,0,0-1,.425,2.306,2.306,0,0,0-.472,1.17h2.868Z" transform="translate(-699.764 -346.533)"/>
      </g>
      <g id="Group_371" data-name="Group 371" transform="translate(66.779 3.232)">
        <path id="Path_130" data-name="Path 130" class="cls-1" d="M713.92,351.918a2.722,2.722,0,0,1-.447,1.536,3.024,3.024,0,0,1-1.21,1.057,4.117,4.117,0,0,1-3.751-.149,3.275,3.275,0,0,1-1.262-1.452,5.009,5.009,0,0,1-.422-2.1v-.194a5,5,0,0,1,.422-2.1,3.293,3.293,0,0,1,1.258-1.453,3.766,3.766,0,0,1,2.044-.529,3.857,3.857,0,0,1,1.755.384,2.825,2.825,0,0,1,1.188,1.1,3.276,3.276,0,0,1,.424,1.694h-2.108a1.458,1.458,0,0,0-.35-.983,1.211,1.211,0,0,0-.953-.387,1.139,1.139,0,0,0-1.125.615,3.758,3.758,0,0,0-.306,1.657v.194a3.789,3.789,0,0,0,.3,1.669,1.154,1.154,0,0,0,1.143.6,1.344,1.344,0,0,0,.931-.311,1.1,1.1,0,0,0,.357-.851Z" transform="translate(-706.828 -346.533)"/>
      </g>
      <g id="Group_372" data-name="Group 372" transform="translate(74.958 1.386)">
        <path id="Path_131" data-name="Path 131" class="cls-1" d="M718.21,353.36v1.692a3.924,3.924,0,0,1-1.327.209,2.114,2.114,0,0,1-2.369-2.414V348.69h-1.14V347.05h1.14v-2h2.25v2h1.356v1.639h-1.356v3.9a.88.88,0,0,0,.186.652.917.917,0,0,0,.633.175A3.227,3.227,0,0,0,718.21,353.36Z" transform="translate(-713.374 -345.055)"/>
      </g>
      <g id="Group_373" data-name="Group 373" transform="translate(85.089 3.381)">
        <path id="Path_132" data-name="Path 132" class="cls-1" d="M729.191,346.652l-3.234,9.268a4.91,4.91,0,0,1-.461.972,2.328,2.328,0,0,1-.8.76,2.559,2.559,0,0,1-1.333.316,3.209,3.209,0,0,1-.474-.029q-.182-.03-.5-.112v-1.7c.074.005.186.008.335.008a1.734,1.734,0,0,0,.9-.186,1.153,1.153,0,0,0,.455-.611l.224-.589-2.815-8.1h2.413l1.438,4.888,1.453-4.888Z" transform="translate(-721.482 -346.652)"/>
      </g>
      <g id="Group_374" data-name="Group 374" transform="translate(93.878 3.232)">
        <path id="Path_133" data-name="Path 133" class="cls-1" d="M728.967,348.522a3.431,3.431,0,0,1,1.314-1.461,4.315,4.315,0,0,1,4.138,0,3.423,3.423,0,0,1,1.318,1.461,4.792,4.792,0,0,1,.451,2.115v.156a4.769,4.769,0,0,1-.451,2.113,3.425,3.425,0,0,1-1.314,1.456,4.306,4.306,0,0,1-4.138,0,3.418,3.418,0,0,1-1.318-1.456,4.767,4.767,0,0,1-.451-2.113v-.156A4.79,4.79,0,0,1,728.967,348.522Zm2.178,3.937a1.316,1.316,0,0,0,1.214.621,1.3,1.3,0,0,0,1.2-.625,3.174,3.174,0,0,0,.38-1.662v-.156a3.194,3.194,0,0,0-.38-1.661,1.464,1.464,0,0,0-2.414,0,3.215,3.215,0,0,0-.379,1.657v.156A3.184,3.184,0,0,0,731.145,352.459Z" transform="translate(-728.516 -346.533)"/>
      </g>
      <g id="Group_375" data-name="Group 375" transform="translate(103.383 3.381)">
        <path id="Path_134" data-name="Path 134" class="cls-1" d="M743.163,346.652v8.061h-2.108l-.06-.841a2.562,2.562,0,0,1-.931.733,2.953,2.953,0,0,1-1.259.257,2.625,2.625,0,0,1-1.97-.731,3.139,3.139,0,0,1-.711-2.264v-5.215h2.242v5.23a1.168,1.168,0,0,0,.295.878,1.129,1.129,0,0,0,.816.284,1.5,1.5,0,0,0,1.437-.722v-5.67Z" transform="translate(-736.123 -346.652)"/>
      </g>
      <g id="Group_376" data-name="Group 376" transform="translate(112.604 3.232)">
        <path id="Path_135" data-name="Path 135" class="cls-1" d="M747.839,346.559a1.93,1.93,0,0,1,.312.064l-.029,2.175a5.83,5.83,0,0,0-.8-.06,1.544,1.544,0,0,0-1.572.8v5.207H743.5v-8.061h2.115l.068.976a2.254,2.254,0,0,1,.756-.835,1.9,1.9,0,0,1,1.032-.29A2.715,2.715,0,0,1,747.839,346.559Z" transform="translate(-743.503 -346.533)"/>
      </g>
      <g id="Group_377" data-name="Group 377" transform="translate(123.189)">
        <path id="Path_136" data-name="Path 136" class="cls-1" d="M758.318,347.932a3.445,3.445,0,0,1,.7,2.405v5.051h-2.249v-5.065a1.4,1.4,0,0,0-.31-1.028,1.311,1.311,0,0,0-.942-.3,1.393,1.393,0,0,0-1.3.656v5.735h-2.25V343.946h2.25v4.246a2.745,2.745,0,0,1,.942-.752,2.681,2.681,0,0,1,1.181-.261A2.567,2.567,0,0,1,758.318,347.932Z" transform="translate(-751.974 -343.946)"/>
      </g>
      <g id="Group_378" data-name="Group 378" transform="translate(132.083 3.232)">
        <path id="Path_137" data-name="Path 137" class="cls-1" d="M759.543,348.522a3.429,3.429,0,0,1,1.314-1.461,4.315,4.315,0,0,1,4.138,0,3.422,3.422,0,0,1,1.318,1.461,4.79,4.79,0,0,1,.45,2.115v.156a4.767,4.767,0,0,1-.45,2.113A3.424,3.424,0,0,1,765,354.362a4.306,4.306,0,0,1-4.138,0,3.416,3.416,0,0,1-1.318-1.456,4.768,4.768,0,0,1-.451-2.113v-.156A4.79,4.79,0,0,1,759.543,348.522Zm2.178,3.937a1.317,1.317,0,0,0,1.216.621,1.3,1.3,0,0,0,1.2-.625,3.174,3.174,0,0,0,.38-1.662v-.156a3.194,3.194,0,0,0-.38-1.661,1.464,1.464,0,0,0-2.414,0,3.213,3.213,0,0,0-.379,1.657v.156A3.183,3.183,0,0,0,761.721,352.459Z" transform="translate(-759.092 -346.533)"/>
      </g>
      <g id="Group_379" data-name="Group 379" transform="translate(141.641 3.232)">
        <path id="Path_138" data-name="Path 138" class="cls-1" d="M777.653,347.264a3.439,3.439,0,0,1,.672,2.368v5.111h-2.252v-5.118a1.861,1.861,0,0,0-.133-.785.748.748,0,0,0-.384-.385,1.666,1.666,0,0,0-.63-.1,1.326,1.326,0,0,0-.775.22,1.478,1.478,0,0,0-.507.622,1.355,1.355,0,0,1,.007.171v5.378H771.4v-5.1a1.875,1.875,0,0,0-.135-.79.769.769,0,0,0-.384-.395,1.577,1.577,0,0,0-.636-.111,1.423,1.423,0,0,0-.75.19,1.407,1.407,0,0,0-.51.54v5.662h-2.249v-8.061h2.108l.074.9a2.7,2.7,0,0,1,.987-.778,3.1,3.1,0,0,1,1.323-.272,2.594,2.594,0,0,1,1.285.3,1.988,1.988,0,0,1,.831.92,2.776,2.776,0,0,1,1.008-.906,3,3,0,0,1,1.4-.316A2.446,2.446,0,0,1,777.653,347.264Z" transform="translate(-766.741 -346.533)"/>
      </g>
      <g id="Group_380" data-name="Group 380" transform="translate(155.16 3.232)">
        <path id="Path_139" data-name="Path 139" class="cls-1" d="M784.936,351.442h-5.1a1.985,1.985,0,0,0,.626,1.2,1.862,1.862,0,0,0,1.282.442,2.625,2.625,0,0,0,1.076-.219,2.219,2.219,0,0,0,.846-.658l1.081,1.243a3.307,3.307,0,0,1-1.241,1.028,4.154,4.154,0,0,1-1.912.417,4.257,4.257,0,0,1-2.148-.522,3.573,3.573,0,0,1-1.4-1.416,4.04,4.04,0,0,1-.489-1.973V350.7a4.9,4.9,0,0,1,.455-2.153,3.459,3.459,0,0,1,1.311-1.478,3.749,3.749,0,0,1,2.027-.534,3.707,3.707,0,0,1,1.944.485,3.1,3.1,0,0,1,1.222,1.374,4.908,4.908,0,0,1,.416,2.1Zm-2.2-1.683a1.539,1.539,0,0,0-.361-1.036,1.329,1.329,0,0,0-1.033-.38,1.243,1.243,0,0,0-1,.425,2.285,2.285,0,0,0-.472,1.17h2.868Z" transform="translate(-777.561 -346.533)"/>
      </g>
    </g>
    <g id="Group_382" data-name="Group 382" transform="translate(587.735 316.648)">
      <path id="Path_140" data-name="Path 140" class="cls-2" d="M633.947,337.456h-32.69m0,0h-2.4l18.883-14.942h0l18.884,14.942h-2.681m.086,4.583v8.182L638.615,347v-4.958h11.041l-5.018-4.088-26.893-21.3-32.01,25.391h11.141v11.148l4.582,3.246V342.039m32.576,0-32.576,0" transform="translate(-585.735 -316.648)"/>
    </g>
    <g id="Group_383" data-name="Group 383" transform="translate(598.875 351.015)">
      <path id="Path_141" data-name="Path 141" class="cls-1" d="M611.058,361.973l-16.407-11.621v5.656l16.376,11.49,25.364-17.785v-5.56l-25.333,17.82Z" transform="translate(-594.651 -344.152)"/>
    </g>
    <g id="Group_384" data-name="Group 384" transform="translate(666.894 325.706)">
      <path id="Path_142" data-name="Path 142" class="cls-1" d="M666.653,327.717h-5.488v14.592h-4.729V327.717h-5.349V323.9h15.566Z" transform="translate(-651.087 -323.897)"/>
    </g>
    <g id="Group_385" data-name="Group 385" transform="translate(685.254 325.706)">
      <path id="Path_143" data-name="Path 143" class="cls-1" d="M680.84,342.106v.2h-5.058l-3.1-6.221H670.5v6.221h-4.716V323.9H673.2a9.916,9.916,0,0,1,3.73.64,5.3,5.3,0,0,1,2.447,1.889,5.209,5.209,0,0,1,.867,3.035,6.037,6.037,0,0,1-.8,3.345,5.84,5.84,0,0,1-2.358,1.992Zm-10.343-9.85H673.2a2.381,2.381,0,0,0,1.738-.576,2.673,2.673,0,0,0-.019-3.37,2.356,2.356,0,0,0-1.719-.593H670.5Z" transform="translate(-665.781 -323.897)"/>
    </g>
    <g id="Group_386" data-name="Group 386" transform="translate(703.335 325.706)">
      <path id="Path_144" data-name="Path 144" class="cls-1" d="M694.919,335.8a7.2,7.2,0,0,1-.885,3.674,5.675,5.675,0,0,1-2.529,2.308,9.958,9.958,0,0,1-7.758-.006,5.874,5.874,0,0,1-2.579-2.314,6.972,6.972,0,0,1-.917-3.661V323.9h4.742v11.9a3.233,3.233,0,0,0,.657,2.258,2.579,2.579,0,0,0,1.973.7,2.492,2.492,0,0,0,1.947-.7,3.318,3.318,0,0,0,.632-2.258V323.9h4.717Z" transform="translate(-680.251 -323.897)"/>
    </g>
    <g id="Group_387" data-name="Group 387" transform="translate(721.162 325.453)">
      <path id="Path_145" data-name="Path 145" class="cls-1" d="M698.161,333.565a6.838,6.838,0,0,1-2.219-1.891,4.474,4.474,0,0,1-.866-2.769,4.343,4.343,0,0,1,.928-2.77,5.891,5.891,0,0,1,2.574-1.808,10.263,10.263,0,0,1,3.7-.632,8.87,8.87,0,0,1,3.579.683,5.639,5.639,0,0,1,2.459,1.978,5.322,5.322,0,0,1,.892,3.092h-4.7a1.911,1.911,0,0,0-.6-1.486,2.482,2.482,0,0,0-1.738-.551,3.536,3.536,0,0,0-1.3.216,1.915,1.915,0,0,0-.821.562,1.191,1.191,0,0,0-.279.765,1.406,1.406,0,0,0,.8,1.188,12.226,12.226,0,0,0,2.459,1.037,12.174,12.174,0,0,1,4.609,2.453,4.91,4.91,0,0,1,1.561,3.744,4.738,4.738,0,0,1-.847,2.845,5.2,5.2,0,0,1-2.389,1.783,9.887,9.887,0,0,1-3.63.606,10.623,10.623,0,0,1-3.812-.676,6.477,6.477,0,0,1-2.889-2.118,5.741,5.741,0,0,1-1.113-3.616h4.742a3.315,3.315,0,0,0,.335,1.618,1.841,1.841,0,0,0,1.006.841,5.113,5.113,0,0,0,1.732.247,2.512,2.512,0,0,0,1.626-.437,1.341,1.341,0,0,0,.525-1.068,1.736,1.736,0,0,0-.228-.917,2.357,2.357,0,0,0-.892-.738,12.615,12.615,0,0,0-1.979-.81A20.48,20.48,0,0,1,698.161,333.565Z" transform="translate(-694.519 -323.695)"/>
    </g>
    <g id="Group_388" data-name="Group 388" transform="translate(743.555 340.495)">
      <path id="Path_146" data-name="Path 146" class="cls-2" d="M717.17,335.733l.035,3.622H712.44v-.845" transform="translate(-712.44 -335.733)"/>
    </g>
    <g id="Group_389" data-name="Group 389" transform="translate(738.207 325.706)">
      <path id="Path_147" data-name="Path 147" class="cls-1" d="M713.509,340.075V327.716H708.16V323.9h15.566v3.819h-5.488V337.3" transform="translate(-708.16 -323.897)"/>
    </g>
    <g id="Group_390" data-name="Group 390" transform="translate(756.566 325.706)">
      <path id="Path_148" data-name="Path 148" class="cls-1" d="M738.419,323.9v18.411h-4.7v-7.46H727.57v7.46h-4.717V323.9h4.717v7.145h6.145V323.9Z" transform="translate(-722.853 -323.897)"/>
    </g>
    <g id="Group_391" data-name="Group 391" transform="translate(775.254 325.453)">
      <path id="Path_149" data-name="Path 149" class="cls-1" d="M753.072,338.332a7.533,7.533,0,0,1-2.884,3.174,8.032,8.032,0,0,1-4.21,1.106,8.137,8.137,0,0,1-4.255-1.106,7.478,7.478,0,0,1-2.884-3.174,10.711,10.711,0,0,1-1.031-4.837v-.67a10.711,10.711,0,0,1,1.031-4.837,7.532,7.532,0,0,1,2.876-3.18,8.579,8.579,0,0,1,8.453,0,7.607,7.607,0,0,1,2.9,3.18,10.614,10.614,0,0,1,1.043,4.837v.67A10.663,10.663,0,0,1,753.072,338.332Zm-4.647-9.434a2.771,2.771,0,0,0-2.471-1.346q-3.327,0-3.326,5.248v.695a7.483,7.483,0,0,0,.841,3.913,2.759,2.759,0,0,0,2.51,1.359,2.732,2.732,0,0,0,2.453-1.378,7.367,7.367,0,0,0,.86-3.895V332.8A7.249,7.249,0,0,0,748.425,328.9Z" transform="translate(-737.809 -323.695)"/>
    </g>
    <g id="Group_392" data-name="Group 392" transform="translate(794.675 325.706)">
      <path id="Path_150" data-name="Path 150" class="cls-1" d="M773.445,342.308h-4.729v-3.477l.455-9.358-4.236,12.835H761.85l-4.236-12.835.467,9.358v3.477h-4.729V323.9h6.209l3.832,12.215,3.831-12.215h6.221Z" transform="translate(-753.352 -323.897)"/>
    </g>
    <g id="Group_393" data-name="Group 393" transform="translate(818.421 325.706)">
      <path id="Path_151" data-name="Path 151" class="cls-1" d="M777.073,327.717v3.325h6.841v3.667h-6.841V338.5h8.106v3.806H772.356V323.9h12.872v3.82Z" transform="translate(-772.356 -323.897)"/>
    </g>
  </g>
</svg>
